<svg width="24" height="24" viewBox="0 0 24 24" fill="none" xmlns="http://www.w3.org/2000/svg">
<path fill-rule="evenodd" clip-rule="evenodd" d="M2.86101 6.74989L6.7499 6.74989L6.7499 2.861C6.7499 2.21667 7.27224 1.69434 7.91657 1.69434C8.5609 1.69434 9.08324 2.21667 9.08324 2.861L9.08324 7.91656C9.08324 8.56089 8.5609 9.08322 7.91657 9.08322L2.86101 9.08322C2.21668 9.08322 1.69435 8.56089 1.69435 7.91656C1.69435 7.27223 2.21668 6.74989 2.86101 6.74989ZM2.861 17.2499H6.74989L6.74989 21.1388C6.74989 21.7831 7.27223 22.3055 7.91656 22.3055C8.56089 22.3055 9.08322 21.7831 9.08322 21.1388L9.08323 16.0832C9.08323 15.4389 8.56089 14.9166 7.91656 14.9166L2.861 14.9166C2.21667 14.9166 1.69434 15.4389 1.69434 16.0832C1.69434 16.7276 2.21667 17.2499 2.861 17.2499ZM17.2499 6.74989L21.1388 6.74989C21.7831 6.74989 22.3055 7.27223 22.3055 7.91656C22.3055 8.56089 21.7831 9.08323 21.1388 9.08323L16.0832 9.08322C15.4389 9.08322 14.9166 8.56089 14.9166 7.91656L14.9166 2.861C14.9166 2.21667 15.4389 1.69434 16.0832 1.69434C16.7276 1.69434 17.2499 2.21667 17.2499 2.861V6.74989ZM21.1389 17.2499H17.25L17.25 21.1388C17.25 21.7831 16.7277 22.3055 16.0833 22.3055C15.439 22.3055 14.9167 21.7831 14.9167 21.1388L14.9167 16.0832C14.9167 15.4389 15.439 14.9166 16.0833 14.9166L21.1389 14.9166C21.7832 14.9166 22.3055 15.4389 22.3055 16.0832C22.3055 16.7276 21.7832 17.2499 21.1389 17.2499Z" fill="white"/>
</svg>
