<svg width="43" height="44" viewBox="0 0 43 44" fill="none" xmlns="http://www.w3.org/2000/svg">
<path d="M31.0397 21.5934C28.4921 20.6316 25.6046 19.5416 23.4361 18.0411L20.653 16.0532C20.4749 15.926 20.2501 15.8833 20.0377 15.9364C19.5255 16.0644 19.1289 16.3764 18.8909 16.8386C18.4886 17.6195 18.6327 18.6849 18.8245 19.442C18.5083 19.4788 18.176 19.5 17.8281 19.5C16.8271 19.5 16.5296 19.1948 16.1529 18.8084C15.7818 18.4277 15.2736 17.9062 14.2422 17.9062C13.5891 17.9062 12.746 18.2448 12.4376 19.8578C12.2638 20.7668 12.25 21.964 12.25 23.4345V26.622C12.25 28.1325 13.4788 29.3613 14.9893 29.3613H29.3828C32.4115 29.3613 34.4115 29.1585 35.6772 28.723C37.0526 28.2497 37.75 27.4088 37.75 26.2236C37.75 24.1266 34.7888 23.0087 31.0397 21.5934ZM20.1993 17.5654L21.6517 18.6028C21.2943 18.7819 20.8365 18.9768 20.2926 19.1393C20.1441 18.5654 20.0578 17.9071 20.1993 17.5654ZM13.7441 26.622V25.7754H15.3261C16.1776 25.7754 16.9657 26.1608 17.4884 26.8329L18.2929 27.8672H14.9893C14.3027 27.8672 13.7441 27.3086 13.7441 26.622ZM23.7549 27.8672V25.4402L25.6164 26.371L26.2577 27.8672H23.7549ZM35.191 27.3102C34.1017 27.685 32.2019 27.8672 29.3828 27.8672H27.8832L26.882 25.5309C26.8124 25.3685 26.6875 25.236 26.5294 25.1569L23.3419 23.5632C23.1102 23.4473 22.8352 23.4598 22.6151 23.5959C22.3948 23.732 22.2607 23.9725 22.2607 24.2314V27.8672H20.1857L18.6678 25.9156C17.86 24.8769 16.642 24.2812 15.3261 24.2812H13.7441V23.4345C13.7441 22.092 13.7562 20.9172 13.9052 20.1383C13.9871 19.7092 14.0881 19.5269 14.141 19.4564C14.183 19.4004 14.1956 19.4004 14.2422 19.4004C14.6435 19.4004 14.7722 19.5323 15.083 19.8513C15.5531 20.3336 16.197 20.9941 17.8281 20.9941C20.3632 20.9941 22.1999 20.0626 23.0125 19.555C23.2177 19.6877 23.4275 19.8168 23.6408 19.943L23.1831 20.6295C22.9542 20.9728 23.047 21.4367 23.3903 21.6655C23.5177 21.7504 23.6616 21.7911 23.804 21.7911C24.0454 21.7911 24.2824 21.6742 24.4263 21.4583L24.9574 20.6617C25.4025 20.8871 25.8571 21.102 26.3167 21.3081L25.9722 21.8249C25.7433 22.1682 25.8361 22.632 26.1794 22.8608C26.3068 22.9458 26.4507 22.9864 26.5931 22.9864C26.8345 22.9864 27.0714 22.8696 27.2154 22.6537L27.7143 21.9052C28.1882 22.099 28.662 22.2854 29.1307 22.466L28.7612 23.0202C28.5323 23.3635 28.6251 23.8273 28.9684 24.0562C29.0958 24.1411 29.2397 24.1817 29.3822 24.1817C29.6236 24.1817 29.8605 24.0649 30.0044 23.849L30.5633 23.0106C32.1922 23.6255 33.7279 24.2072 34.8019 24.8C35.7531 25.3251 36.2559 25.8174 36.2559 26.2236C36.2559 26.588 36.1736 26.9721 35.191 27.3102Z" fill="black"/>
<path d="M5.84567 31.0957C6.04093 31.291 6.35751 31.291 6.55277 31.0957L9.73475 27.9138C9.93001 27.7185 9.93001 27.4019 9.73475 27.2067C9.53949 27.0114 9.22291 27.0114 9.02765 27.2067L6.19922 30.0351L3.37079 27.2067C3.17553 27.0114 2.85895 27.0114 2.66368 27.2067C2.46842 27.4019 2.46842 27.7185 2.66368 27.9138L5.84567 31.0957ZM6.55277 14.1724C6.35751 13.9772 6.04093 13.9772 5.84567 14.1724L2.66369 17.3544C2.46842 17.5497 2.46842 17.8662 2.66369 18.0615C2.85895 18.2568 3.17553 18.2568 3.37079 18.0615L6.19922 15.2331L9.02765 18.0615C9.22291 18.2568 9.53949 18.2568 9.73475 18.0615C9.93002 17.8662 9.93002 17.5497 9.73475 17.3544L6.55277 14.1724ZM6.19922 30.7422L6.69922 30.7422L6.69922 14.526L6.19922 14.526L5.69922 14.526L5.69922 30.7422L6.19922 30.7422Z" fill="black"/>
</svg>
